<svg width="162" height="162" viewBox="0 0 162 162" fill="none" xmlns="http://www.w3.org/2000/svg">
<circle cx="80.6148" cy="80.6148" r="80.6148" fill="#00D8FF"/>
<path d="M79.9306 89.4726C84.7081 89.4726 88.581 85.5997 88.581 80.8222C88.581 76.0448 84.7081 72.1719 79.9306 72.1719C75.1532 72.1719 71.2803 76.0448 71.2803 80.8222C71.2803 85.5997 75.1532 89.4726 79.9306 89.4726Z" fill="white"/>
<path d="M55.7117 98.0217L53.7975 97.5322C39.5789 93.9412 31.4229 87.8351 31.4229 80.8033C31.4229 73.7667 39.5838 67.6654 53.7975 64.0744L55.7117 63.5898L56.2497 65.4846C57.6867 70.4456 59.528 75.2805 61.7549 79.9407L62.1668 80.8033L61.7549 81.6659C59.5257 86.3328 57.6793 91.1692 56.2497 96.1317L55.7117 98.0217ZM52.9155 68.4844C42.1135 71.5278 35.4791 76.1704 35.4791 80.8033C35.4791 85.4265 42.1086 90.074 52.9155 93.1125C54.2385 88.9061 55.8377 84.7917 57.689 80.8033C55.8243 76.8083 54.2296 72.6928 52.9155 68.4844ZM104.149 98.0217L103.616 96.122C102.175 91.16 100.332 86.3237 98.1058 81.6611L97.6939 80.8033L98.1058 79.9359C100.335 75.2787 102.172 70.4374 103.616 65.475L104.149 63.585L106.063 64.0696C120.287 67.6606 128.438 73.7619 128.438 80.8033C128.438 87.8399 120.282 93.9412 106.063 97.5322L104.149 98.0217ZM102.162 80.8033C104.101 85.0001 105.714 89.129 106.945 93.1125C117.752 90.074 124.386 85.4265 124.386 80.8033C124.386 76.1704 117.757 71.5326 106.945 68.4844C105.624 72.6915 104.026 76.8067 102.162 80.8033Z" fill="white"/>
<path d="M52.8846 68.4649L52.3515 66.5749C48.3486 52.4823 49.5601 42.3877 55.6808 38.8694C61.6658 35.4044 71.2951 39.4994 81.3799 49.846L82.7562 51.261L81.3799 52.6713C77.798 56.3964 74.5242 60.406 71.5907 64.6606L71.0431 65.4457L70.0933 65.5232C64.9349 65.9284 59.8182 66.7533 54.794 67.9899L52.8846 68.4649ZM60.5512 41.6705C59.4657 41.6705 58.5061 41.908 57.6968 42.3732C53.6842 44.6848 52.9767 52.7343 55.739 63.5993C60.0569 62.6446 64.4136 61.9613 68.8042 61.5785C71.3461 57.9732 74.119 54.5365 77.1056 51.2901C70.7911 45.15 64.8303 41.6705 60.5512 41.6705ZM99.3058 123.977C93.5486 123.977 86.1534 119.635 78.4771 111.755L77.1056 110.345L78.4771 108.94C82.0596 105.209 85.3349 101.194 88.2711 96.936L88.8139 96.1606L89.7541 96.0685C94.9142 95.6706 100.033 94.8488 105.058 93.6115L106.972 93.1269L107.51 95.0217C111.494 109.105 110.287 119.214 104.176 122.732C102.692 123.573 101.011 124.003 99.3058 123.977ZM82.7562 110.311C89.0659 116.451 95.0315 119.936 99.3058 119.936C100.396 119.936 101.356 119.693 102.16 119.233C106.178 116.917 106.89 108.853 104.118 97.9876C99.805 98.9471 95.4434 99.6353 91.0431 100.018C88.512 103.629 85.7436 107.068 82.7562 110.311Z" fill="white"/>
<path d="M106.974 68.4644L105.059 67.9847C100.034 66.7442 94.9156 65.9192 89.7552 65.518L88.815 65.4356L88.2723 64.6505C85.3401 60.3936 82.0645 56.3838 78.4782 52.6612L77.1067 51.2509L78.4782 49.8456C88.5582 39.5039 98.1826 35.4089 104.177 38.869C110.293 42.3922 111.51 52.4867 107.511 66.5745L106.974 68.4644ZM91.0443 61.5781C95.6675 61.99 100.048 62.683 104.119 63.5989C106.886 52.7339 106.179 44.6844 102.161 42.3679C98.1681 40.0563 90.6517 43.594 82.7573 51.2897C85.7426 54.5366 88.5146 57.9677 91.0443 61.5781ZM60.5523 123.977C58.8471 124.001 57.1661 123.572 55.6819 122.732C49.5612 119.213 48.3497 109.109 52.3478 95.0213L52.8712 93.1265L54.7854 93.6111C59.4571 94.7887 64.6037 95.6174 70.0895 96.0681L71.0297 96.1602L71.5773 96.9356C74.5044 101.19 77.7804 105.208 81.3665 108.939L82.7428 110.345L81.3665 111.755C73.6951 119.64 66.2998 123.977 60.5523 123.977ZM55.7401 97.992C52.9778 108.857 53.6853 116.921 57.6979 119.238C61.696 121.515 69.1881 118.002 77.1067 110.311C74.1213 107.064 71.3484 103.627 68.8053 100.023C64.4103 99.6339 60.0457 98.9556 55.7401 97.992Z" fill="white"/>
<path d="M79.9323 100.536C76.603 100.536 73.1865 100.396 69.7554 100.11L68.8055 100.027L68.2579 99.2422C66.3231 96.46 64.5027 93.6 62.8012 90.6693C61.1122 87.7308 59.5424 84.7253 58.0956 81.6603L57.6885 80.8026L58.0956 79.9351C59.5446 76.8724 61.1099 73.8677 62.8012 70.931C64.4828 68.0427 66.3195 65.1544 68.2579 62.3533L68.8055 61.5779L69.7554 61.4907C76.5249 60.9237 83.33 60.9237 90.0995 61.4907L91.0397 61.5828L91.5873 62.3581C95.4632 67.9252 98.8673 73.8062 101.764 79.94L102.166 80.8074L101.764 81.6652C98.8753 87.8031 95.4708 93.6848 91.5873 99.247L91.0397 100.032L90.0995 100.114C86.6781 100.391 83.2567 100.536 79.9323 100.536ZM71.0445 96.1552C77.0294 96.6059 82.8351 96.6059 88.8153 96.1552C92.1537 91.2664 95.1214 86.1345 97.6934 80.8026C95.1305 75.4658 92.1624 70.3333 88.8153 65.45C82.9004 64.9944 76.9593 64.9944 71.0445 65.45C67.6945 70.3315 64.7263 75.4643 62.1663 80.8026C64.7439 86.1316 67.7113 91.2631 71.0445 96.1552Z" fill="white"/>
</svg>
