<svg viewBox="0 0 162 162" fill="none" xmlns="http://www.w3.org/2000/svg">
<circle cx="80.6473" cy="80.6473" r="80.6473" fill="url(#git-gradient)"/>
<path d="M119.848 75.8123L86.1877 42.1517C84.7602 40.7172 82.8801 40 81 40C79.1199 40 77.2398 40.7172 75.8123 42.1517L69.1554 48.8086L77.393 57.0462C80.1296 55.4377 83.6948 55.7858 86.0414 58.1325C88.3881 60.4791 88.7293 64.0443 87.1208 66.7739L95.2191 74.8723C97.9557 73.2638 101.521 73.6119 103.868 75.9586C106.653 78.7439 106.653 83.2561 103.868 86.0414C101.082 88.8268 96.57 88.8268 93.7846 86.0414C91.438 83.6948 91.0898 80.1296 92.6984 77.393L84.6 69.2947C84.0221 69.6359 83.4163 69.8865 82.7826 70.0467V91.9463C85.8534 92.7402 88.1304 95.5046 88.1304 98.8261C88.1304 102.767 84.9412 105.957 81 105.957C77.0588 105.957 73.8696 102.767 73.8696 98.8261C73.8696 95.5046 76.1466 92.7402 79.2174 91.9463V70.0467C78.0267 69.7403 76.8916 69.1484 75.9586 68.2154C73.6119 65.8687 73.2707 62.3035 74.8792 59.5739L66.6347 51.3293L42.1517 75.8123C39.2828 78.6743 39.2828 83.3257 42.1517 86.1877L75.8123 119.848C77.2398 121.283 79.1199 122 81 122C82.8801 122 84.7602 121.283 86.1877 119.848L119.848 86.1877C122.717 83.3257 122.717 78.6743 119.848 75.8123Z" fill="white"/>
<defs>
<linearGradient id="git-gradient" x1="80.6473" y1="0" x2="80.6473" y2="161.295" gradientUnits="userSpaceOnUse">
<stop stop-color="#F44D27"/>
<stop offset="1" stop-color="#DF3008"/>
</linearGradient>
</defs>
</svg>
