<svg width="162" height="162" viewBox="0 0 162 162" fill="none" xmlns="http://www.w3.org/2000/svg">
<circle cx="80.6473" cy="80.6473" r="80.6473" fill="url(#firebase-gradient)"/>
<path d="M103.141 57.4951C103.087 57.1747 102.946 56.8752 102.733 56.6293C102.521 56.3835 102.245 56.2006 101.936 56.1007C101.626 56.0008 101.296 55.9876 100.979 56.0626C100.663 56.1377 100.374 56.298 100.142 56.5262L53.6865 102.441L79.4183 117.267C80.2184 117.712 81.1188 117.946 82.0344 117.946C82.95 117.946 83.8504 117.712 84.6505 117.267L110.531 102.441L103.141 57.4951Z" fill="white"/>
<path d="M76.5084 59.917V59.9089L59.875 90.9262C59.801 91.0626 59.7786 91.2211 59.8119 91.3726C59.8451 91.5241 59.9318 91.6586 60.056 91.7515C60.1803 91.8444 60.3338 91.8895 60.4886 91.8785C60.6433 91.8675 60.789 91.8012 60.8989 91.6917L82.2074 70.627L82.2881 70.5463L76.5084 59.917Z" fill="white"/>
<path d="M74.2264 58.686L75.0338 57.1696L66.6057 41.384C65.7902 39.8547 63.715 40.2439 63.4469 41.9557L55.1545 93.3481C55.1458 93.3986 55.1555 93.4505 55.1817 93.4944C55.2079 93.5384 55.249 93.5716 55.2975 93.5879C55.346 93.6043 55.3988 93.6028 55.4463 93.5837C55.4938 93.5646 55.5329 93.5292 55.5566 93.4838L74.2264 58.686Z" fill="white"/>
<path d="M78.7771 58.6759L84.208 68.6511L89.4516 63.4689L83.6041 52.3778C82.9274 51.0859 81.2818 50.9583 80.6117 52.247L77.9648 57.1935L78.7723 58.6695L78.7771 58.6759Z" fill="white"/>
<defs>
<linearGradient id="firebase-gradient" x1="80.6473" y1="0" x2="80.6473" y2="161.295" gradientUnits="userSpaceOnUse">
<stop stop-color="#FFCB2C"/>
<stop offset="1" stop-color="#FFA713"/>
</linearGradient>
</defs>
</svg>
