<svg viewBox="0 0 162 162" fill="none" xmlns="http://www.w3.org/2000/svg">
<circle cx="80.6473" cy="80.6473" r="80.6473" fill="url(#styled-components-gradient)"/>
<path d="M102.912 49L102.495 51.0528C101.85 54.9431 102.084 56.0561 103.851 57.4999L105.556 58.8334L103.789 66.2781C102.734 70.7196 101.439 74.442 100.617 75.6652C99.9115 76.7205 99.0893 78.2745 98.9115 79.1093C98.6171 80.1068 97.6171 81.1096 96.0892 81.9968C94.7392 82.7214 92.0892 84.6639 90.2113 86.2232C88.7113 87.4989 87.6779 88.2812 87.1168 88.6172L85.2835 89.9875C84.812 90.6482 84.4573 91.377 84.2334 92.1453C84.1057 92.707 84.1779 93.0798 84.3668 93.3528C84.5501 93.6153 84.8668 93.7991 85.3001 93.9146C85.8131 94.0282 86.3411 94.0689 86.8668 94.0353C88.0561 93.9585 89.2332 93.7614 90.378 93.4473C90.7669 93.3475 91.0725 93.2531 91.3391 93.1691C91.7503 92.6913 92.7003 91.7883 94.3836 90.2185C98.8504 86.0552 100.556 83.7766 98.7949 84.3909C98.1448 84.6114 98.4393 84.0549 99.556 82.9419C101.912 80.7736 103.262 77.4975 106.084 67.2231C108.317 59.1117 108.317 58.9962 109.962 58.9962C110.734 58.9962 112.917 59.1222 112.917 59.1222V49H107.906H102.912ZM122.072 65.6166C121.716 65.6166 121.127 66.1206 120.777 66.6771C120.133 67.6746 120.894 68.2836 130.594 74.0062C136.355 77.4555 141 80.3956 140.883 80.6213C140.767 80.7841 136.061 83.6769 130.422 87.0107C120.188 93.0063 120.133 93.064 121.072 94.2873C122.25 95.7311 121.072 96.2299 134.355 88.3967L144 82.5639V78.1748L133.239 71.8957C127.422 68.4516 122.366 65.6743 122.072 65.6166ZM37.0449 66.2308C36.7505 66.2308 31.6948 69.0659 25.878 72.4522L15 78.7313V83.1204L25.8169 89.5097C31.817 93.0063 36.8727 95.8991 37.106 95.8991C37.3394 95.8991 37.8116 95.3951 38.2838 94.7861C38.9894 93.7308 38.3949 93.2845 28.4614 87.3414C19.0001 81.7291 18.0001 80.9521 18.9445 80.3431C19.5334 79.9546 24.0002 77.34 28.8225 74.5102C39.8172 68.1208 39.2283 68.5619 38.3449 67.2283C37.9949 66.6771 37.4005 66.1783 37.0505 66.2308H37.0449ZM83.1223 66.3516C81.5 66.3411 78.0111 68.6774 67.5664 76.7363C67.1164 77.7495 67.0775 78.4478 67.2831 78.8993C67.4164 79.209 67.6609 79.4243 67.9998 79.5818C68.3331 79.7393 68.7664 79.8338 69.2442 79.8706C70.1943 79.9493 71.3165 79.8076 72.2221 79.6396L72.8332 79.5083C73.0424 79.2432 73.317 79.0305 73.6332 78.8888C74.2777 78.5528 76.9833 76.2217 79.6889 73.7227C84.4501 69.1656 85.5668 67.1076 83.6279 66.4408C83.4688 66.381 83.299 66.3507 83.1279 66.3516H83.1223ZM95.3226 69.5174C93.8947 69.5541 91.3225 71.1186 86.9168 74.442C84.7057 76.1377 83.3056 77.0513 82.5556 77.2403L79.6444 79.4138C78.55 81.3038 78.3889 82.4746 78.6778 83.1204C78.7501 83.2797 78.855 83.4238 78.9866 83.5446C79.1182 83.6653 79.2738 83.7603 79.4444 83.8239C79.8689 83.9823 80.3215 84.0625 80.7778 84.0601C81.8683 84.0491 82.9522 83.899 84.0001 83.6139C84.5462 83.4754 85.0857 83.3142 85.6168 83.1309L85.7779 83.0679L86.0724 82.9209C86.6279 82.2436 87.9057 80.9678 89.5058 79.4978C94.5614 74.8882 97.1448 71.6122 96.617 70.3889C96.3781 69.7956 95.967 69.4964 95.3226 69.5174ZM81.8556 75.1875C81.4445 75.2295 80.5222 75.9015 78.8611 77.277C76.461 79.2825 73.8443 80.4376 72.9388 79.9231C72.7283 79.968 72.5172 80.01 72.3054 80.0491C71.3832 80.2223 70.2331 80.3641 69.2053 80.2853C68.7211 80.2576 68.2464 80.1455 67.8053 79.9546C67.3893 79.7748 67.0572 79.4573 66.872 79.062C66.6664 78.5895 66.6664 78.0015 66.8997 77.2508L63.2885 80.0543L55.1162 86.4437V96.8021L81.8945 76.8675C81.8893 76.6492 81.9193 76.4315 81.9834 76.2217C82.1889 75.5182 82.1778 75.1612 81.8556 75.1927V75.1875ZM93.3781 78.5423C92.9725 78.5423 92.2947 79.083 91.2114 80.1698C89.7391 81.6556 87.4224 83.0941 86.1946 83.3881L86.0057 83.4826C85.8041 83.5613 85.6003 83.6348 85.3946 83.7031C85.0612 83.8081 84.6279 83.9341 84.1279 84.0601C83.1279 84.3174 81.8834 84.5536 80.7722 84.5274C80.2484 84.5268 79.7296 84.4305 79.2444 84.2439C78.7871 84.0658 78.4207 83.727 78.2222 83.2989C77.9 82.5691 78.0277 81.5453 78.7333 80.0911L55.1106 97.6736V104H65.4886L87.5002 87.6617C88.0724 87.0632 88.9335 86.2442 90.0947 85.2204C93.2058 82.4956 93.9114 81.5558 93.9114 80.1646C93.9114 79.083 93.7836 78.537 93.3781 78.537V78.5423ZM98.6171 88.78L96.7337 90.5545C95.6781 91.4995 93.7947 92.665 92.5058 93.1638L92.2503 93.2688L92.2336 93.2951L92.178 93.3475C92.128 93.3843 92.1058 93.3896 92.0669 93.4053C91.5524 93.5893 91.0297 93.7522 90.5002 93.8936C89.3231 94.2174 88.1123 94.4198 86.889 94.4973C86.3107 94.5324 85.73 94.4846 85.1668 94.3556C84.678 94.2539 84.2465 93.9845 83.9557 93.5996C83.689 93.2111 83.6112 92.6913 83.7612 92.0508C83.8805 91.5948 84.0577 91.1541 84.289 90.7383L66.5275 104H90.1502L92.9725 100.944C96.8504 96.6709 98.6171 93.6153 98.6171 91.0008V88.78Z" fill="#F5F5F5"/>
<defs>
<linearGradient id="styled-components-gradient" x1="80.6473" y1="0" x2="80.6473" y2="161.295" gradientUnits="userSpaceOnUse">
<stop stop-color="#DA9B61"/>
<stop offset="1" stop-color="#DA817E"/>
</linearGradient>
</defs>
</svg>
