<svg viewBox="0 0 162 162" fill="none" xmlns="http://www.w3.org/2000/svg">
<circle cx="80.6473" cy="80.6473" r="80.6473" fill="#6CC24A"/>
<path d="M80.4827 42C79.4029 42 78.3233 42.2652 77.3914 42.7982L48.0739 59.7403C46.1806 60.8361 45 62.9108 45 65.1023V95.8398C45 98.061 46.1806 100.106 48.0739 101.202L55.7702 105.644C59.4977 107.48 60.8269 107.478 62.5131 107.478C68.0452 107.478 71.209 104.132 71.209 98.3271V66.612C71.209 66.1382 70.8272 65.7502 70.3538 65.7502H66.6559C66.153 65.7502 65.795 66.1382 65.795 66.612V98.2982C65.795 100.904 63.1062 103.451 58.7574 101.289L50.7087 96.6381C50.4128 96.49 50.2349 96.1656 50.2349 95.8398V65.1312C50.2349 64.7759 50.4128 64.476 50.7087 64.2983L80.0262 47.362C80.2925 47.1843 80.6491 47.1843 80.9449 47.362L110.262 64.2983C110.558 64.476 110.736 64.7765 110.736 65.1023V95.8398C110.736 96.1656 110.558 96.49 110.291 96.6381L80.9449 113.609C80.6787 113.757 80.2925 113.757 80.0262 113.609L72.4801 109.138C72.2731 108.99 71.9823 108.962 71.7752 109.08C69.6748 110.265 69.2902 110.412 67.3377 111.093C66.8644 111.241 66.1243 111.536 67.6035 112.365L77.3914 118.173C78.3381 118.706 79.4061 119 80.4711 119C81.5657 119 82.6272 118.706 83.5739 118.173L112.926 101.202C114.819 100.106 116 98.061 116 95.8398V65.1312C116 62.9101 114.819 60.865 112.926 59.7692L83.5739 42.7982C82.642 42.2652 81.5625 42 80.4827 42ZM88.3696 65.7097C79.9975 65.7097 74.9993 69.2612 74.9993 75.1843C74.9993 81.6108 79.9647 83.385 88.0114 84.1846C97.626 85.1323 98.3656 86.558 98.3656 88.4534C98.3656 91.711 95.737 93.1039 89.5541 93.1039C81.7737 93.1039 80.0567 91.1465 79.4946 87.2965C79.4355 86.8819 79.0825 86.585 78.6684 86.585H74.8491C74.3758 86.585 74.0229 86.9737 74.0229 87.418C74.0229 92.3637 76.7149 98.2519 89.5541 98.2519C98.8433 98.2519 104.167 94.5842 104.167 88.1873C104.167 81.8496 99.8764 80.1583 90.8831 78.944C81.7418 77.7594 80.8236 77.1373 80.8236 75.005C80.8236 73.228 81.6246 70.8924 88.3696 70.8924C94.375 70.8924 96.6222 72.1913 97.5393 76.2486C97.6281 76.6336 97.9514 76.9311 98.3656 76.9311H102.185C102.421 76.9311 102.626 76.8138 102.803 76.6361C102.951 76.488 103.041 76.249 103.011 75.9825C102.419 68.9933 97.7771 65.7097 88.3696 65.7097Z" fill="white"/>
</svg>
