<svg viewBox="0 0 162 162" fill="none" xmlns="http://www.w3.org/2000/svg">
<circle cx="80.6473" cy="80.6473" r="80.6473" fill="#CB6898"/>
<g clip-path="url(#clip0)">
<path d="M80.0569 99.9219C80.0111 100.014 79.9653 100.087 80.0569 99.9219V99.9219ZM118.068 86.5885C114.999 86.5875 111.972 87.2954 109.219 88.6575C108.319 86.8338 107.388 85.2399 107.235 84.0445C107.052 82.6498 106.854 81.8222 107.067 80.1671C107.281 78.5119 108.242 76.1671 108.227 75.9985C108.212 75.8299 108.013 74.987 106.045 74.9717C104.077 74.9563 102.383 75.3548 102.187 75.8759C101.839 76.8281 101.568 77.8071 101.378 78.8031C101.027 80.5962 97.4429 87.0023 95.4137 90.3433C94.7423 89.0407 94.1778 87.8912 94.0557 86.9717C93.8726 85.577 93.6743 84.7495 93.8879 83.0943C94.1015 81.4391 95.0627 79.0943 95.0475 78.9257C95.0322 78.7571 94.8339 77.9142 92.8672 77.8989C90.9005 77.8835 89.2053 78.282 89.007 78.8031C88.8086 79.3242 88.595 80.5502 88.1983 81.7303C87.8016 82.9104 83.0275 93.5771 81.7779 96.351C81.1371 97.761 80.5878 98.8951 80.1912 99.6614C80.1301 99.784 80.0843 99.8606 80.0538 99.9219C80.0996 99.8453 80.1301 99.7687 80.1301 99.7993C79.7945 100.458 79.5961 100.826 79.5961 100.826V100.841C79.3367 101.332 79.0468 101.776 78.9095 101.776C78.818 101.776 78.6196 100.489 78.9553 98.7265C79.6724 95.0177 81.366 89.2552 81.3507 89.056C81.3355 88.9487 81.6711 87.9525 80.2369 87.4161C78.8485 86.9104 78.345 87.7533 78.2229 87.7533C78.1009 87.7533 78.0093 88.0598 78.0093 88.0598C78.0093 88.0598 79.5503 81.5617 75.0509 81.5617C72.2435 81.5617 68.3375 84.6575 66.4181 87.4621C65.2128 88.1211 62.6037 89.5464 59.8574 91.0636C58.8046 91.646 57.7213 92.2437 56.699 92.8108C56.6227 92.7341 56.5617 92.6575 56.4854 92.5809C51.0247 86.7265 40.9425 82.5885 41.3697 74.7264C41.5223 71.8605 42.514 64.3356 60.7576 55.2015C75.71 47.7225 87.6643 49.7762 89.7226 54.3432C92.6825 60.8567 83.3312 72.9793 67.8035 74.7264C61.8851 75.3854 58.7741 73.0866 57.9959 72.2283C57.1873 71.3241 57.0652 71.2782 56.7601 71.4467C56.2566 71.7226 56.577 72.5195 56.7601 72.9946C57.2178 74.2054 59.125 76.351 62.3733 77.4238C65.2265 78.3586 72.1657 78.8797 80.5558 75.6153C89.9819 71.9678 97.3193 61.8069 95.168 53.3011C92.977 44.6574 78.7081 41.8221 65.2158 46.6344C57.1766 49.5003 48.4828 54.0061 42.2287 59.8758C34.7998 66.8644 33.6112 72.9487 34.0995 75.4927C35.8373 84.5196 48.2234 90.4046 53.1806 94.7571C52.9365 94.8951 52.7076 95.0177 52.494 95.1403C50.0086 96.3817 40.5657 101.347 38.2023 106.589C35.5322 112.535 38.6447 116.796 40.6877 117.378C47.0639 119.156 53.5926 115.953 57.1003 110.696C60.608 105.439 60.1823 98.5732 58.565 95.4468C58.5498 95.4008 58.5193 95.3702 58.504 95.3242C59.1448 94.9411 59.8009 94.5579 60.457 94.1748C61.7218 93.4238 62.9577 92.7341 64.041 92.1364C63.4307 93.7916 62.9882 95.784 62.7593 98.6652C62.4847 102.037 63.8732 106.405 65.6735 108.121C66.4669 108.872 67.4266 108.887 68.0217 108.887C70.1272 108.887 71.0732 107.14 72.1245 105.056C73.4214 102.512 74.5657 99.5541 74.5657 99.5541C74.5657 99.5541 73.1315 107.554 77.0527 107.554C78.4854 107.554 79.9196 105.7 80.5619 104.75V104.765C80.5619 104.765 80.5924 104.704 80.6687 104.581C80.8213 104.351 80.8976 104.213 80.8976 104.213V104.167C81.4774 103.171 82.7437 100.887 84.6494 97.1173C87.1212 92.2437 89.4846 86.1594 89.4846 86.1594C89.7129 87.4969 90.0289 88.8178 90.4305 90.1135C90.8577 91.5694 91.7579 93.1633 92.475 94.7112C91.8953 95.5081 91.5443 95.9679 91.5443 95.9679C91.5454 95.9796 91.5509 95.9906 91.5596 95.9985C91.1019 96.6116 90.5831 97.2706 90.0491 97.9142C88.0976 100.244 85.777 102.91 85.4718 103.677C85.1056 104.581 85.1972 105.255 85.899 105.776C86.4178 106.175 87.3332 106.236 88.2929 106.159C90.0476 106.037 91.2834 105.608 91.8785 105.332C92.9755 104.937 94.0123 104.39 94.959 103.707C96.8662 102.297 98.0257 100.274 97.9189 97.6077C97.8579 96.1365 97.3849 94.6652 96.8051 93.2859C96.973 93.0407 97.1561 92.7801 97.3239 92.5196C100.343 88.0905 102.678 83.2291 102.678 83.2291C102.906 84.5666 103.222 85.8875 103.624 87.1832C103.99 88.4246 104.706 89.7885 105.362 91.1219C102.525 93.4361 100.771 96.1181 100.16 97.8805C99.0312 101.145 99.9162 102.616 101.579 102.953C102.327 103.107 103.395 102.754 104.188 102.417C105.367 102.023 106.478 101.449 107.482 100.716C109.39 99.3058 111.234 97.3288 111.112 94.6468C111.066 93.4361 110.731 92.2253 110.288 91.0606C112.684 90.0491 115.795 89.4974 119.762 89.9571C128.257 90.9533 129.92 96.2867 129.6 98.5089C129.279 100.731 127.494 101.972 126.899 102.34C126.304 102.708 126.121 102.846 126.167 103.122C126.243 103.52 126.518 103.505 127.021 103.413C127.723 103.291 131.475 101.605 131.643 97.4821C131.887 92.2713 126.899 86.5395 118.064 86.5855L118.068 86.5885ZM52.5856 108.765C49.7797 111.845 45.8433 113.01 44.1512 112.029C42.3355 110.969 43.0526 106.435 46.5146 103.153C48.6201 101.16 51.3345 99.3211 53.1349 98.187C53.5468 97.9418 54.1419 97.574 54.8742 97.1296C54.9963 97.0529 55.0573 97.0223 55.0573 97.0223C55.1946 96.9303 55.3472 96.8537 55.4998 96.7617C56.7646 101.421 55.5456 105.528 52.5856 108.762V108.765ZM73.0857 94.7571C72.1092 97.1633 70.051 103.294 68.7998 102.972C67.7318 102.696 67.0757 98.0215 68.5862 93.4238C69.3491 91.1096 70.9664 88.351 71.9276 87.2782C73.4671 85.5464 75.1607 84.9947 75.5574 85.6843C76.0914 86.5885 73.696 93.2552 73.0857 94.7571ZM90.0216 102.88C89.6097 103.094 89.2282 103.232 89.0451 103.125C88.9078 103.048 89.213 102.757 89.213 102.757C89.213 102.757 91.3338 100.474 92.1729 99.4315C92.6612 98.8185 93.2257 98.0981 93.8345 97.3012C93.8345 97.3778 93.8497 97.4545 93.8497 97.5464C93.8299 100.29 91.2071 102.144 90.017 102.88H90.0216ZM103.079 99.8913C102.774 99.6767 102.82 98.9564 103.842 96.7188C104.239 95.8453 105.153 94.374 106.741 92.964C106.921 93.4978 107.018 94.0559 107.031 94.6192C107.016 98.0675 104.559 99.3549 103.081 99.8913H103.079Z" fill="white"/>
</g>
<defs>
<clipPath id="clip0">
<rect x="34.0029" y="41.8496" width="97.6486" height="78.4676" fill="white"/>
</clipPath>
</defs>
</svg>
